<?xml version="1.0" encoding="UTF-8" standalone="no"?>
<!-- Created with Inkscape (http://www.inkscape.org/) -->

<svg
   width="512"
   height="512"
   viewBox="0 0 135.46666 135.46667"
   version="1.1"
   id="svg204"
   sodipodi:docname="favicon.svg"
   inkscape:version="1.2.2 (732a01da63, 2022-12-09)"
   xmlns:inkscape="http://www.inkscape.org/namespaces/inkscape"
   xmlns:sodipodi="http://sodipodi.sourceforge.net/DTD/sodipodi-0.dtd"
   xmlns="http://www.w3.org/2000/svg"
   xmlns:svg="http://www.w3.org/2000/svg">
  <sodipodi:namedview
     id="namedview206"
     pagecolor="#505050"
     bordercolor="#ffffff"
     borderopacity="1"
     inkscape:showpageshadow="0"
     inkscape:pageopacity="0"
     inkscape:pagecheckerboard="1"
     inkscape:deskcolor="#505050"
     inkscape:document-units="mm"
     showgrid="false"
     inkscape:zoom="0.84096521"
     inkscape:cx="54.104497"
     inkscape:cy="285.38636"
     inkscape:window-width="1920"
     inkscape:window-height="1129"
     inkscape:window-x="1912"
     inkscape:window-y="-8"
     inkscape:window-maximized="1"
     inkscape:current-layer="layer1" />
  <defs
     id="defs201" />
  <g
     inkscape:label="Layer 1"
     inkscape:groupmode="layer"
     id="layer1">
    <rect
       style="fill:#000000;stroke:none;stroke-width:0.528773;stroke-linecap:round;stroke-linejoin:round;paint-order:stroke fill markers;stroke-opacity:1"
       id="rect477"
       width="134.93788"
       height="134.9379"
       x="0.26438642"
       y="0.26438642"
       ry="0.3134419" />
    <g
       id="g4527">
      <g
         id="g4518">
        <path
           d="m 43.377379,86.88661 q 2.448437,0 4.18604,1.737612 1.737602,1.737616 1.737602,4.186041 0,2.448433 -1.737602,4.22552 -1.737603,1.737616 -4.18604,1.737616 -2.448442,0 -4.186046,-1.737616 -1.737602,-1.777087 -1.737602,-4.22552 0,-2.448425 1.737602,-4.186041 1.737604,-1.737612 4.186046,-1.737612 z"
           style="font-style:normal;font-variant:normal;font-weight:normal;font-stretch:normal;font-size:14.8167px;line-height:1.25;font-family:'Trebuchet MS';-inkscape-font-specification:'Trebuchet MS';letter-spacing:-0.341313px;word-spacing:0px;fill:#ffffff;fill-opacity:1;stroke:#ffffff;stroke-width:1.44424;stroke-opacity:1"
           id="path5204-0" />
        <path
           d="m 92.089289,86.886609 q 2.448441,0 4.18604,1.737613 1.737603,1.737616 1.737603,4.186041 0,2.448433 -1.737603,4.22552 -1.737599,1.737616 -4.18604,1.737616 -2.448444,0 -4.186047,-1.737616 -1.737598,-1.777087 -1.737598,-4.22552 0,-2.448425 1.737598,-4.186041 1.737603,-1.737613 4.186047,-1.737613 z"
           style="font-style:normal;font-variant:normal;font-weight:normal;font-stretch:normal;font-size:14.8167px;line-height:1.25;font-family:'Trebuchet MS';-inkscape-font-specification:'Trebuchet MS';letter-spacing:-0.341313px;word-spacing:0px;fill:#ffffff;fill-opacity:1;stroke:#ffffff;stroke-width:1.44424;stroke-opacity:1"
           id="path5206-7" />
        <path
           d="m 67.733332,86.886609 q 2.448441,0 4.18604,1.737613 1.737606,1.737616 1.737606,4.186041 0,2.448433 -1.737606,4.22552 -1.737599,1.737616 -4.18604,1.737616 -2.448444,0 -4.186047,-1.737616 -1.737598,-1.777087 -1.737598,-4.22552 0,-2.448425 1.737598,-4.186041 1.737603,-1.737613 4.186047,-1.737613 z"
           style="font-style:normal;font-variant:normal;font-weight:normal;font-stretch:normal;font-size:14.8167px;line-height:1.25;font-family:'Trebuchet MS';-inkscape-font-specification:'Trebuchet MS';letter-spacing:-0.341313px;word-spacing:0px;fill:#ffffff;fill-opacity:1;stroke:#ffffff;stroke-width:1.44424;stroke-opacity:1"
           id="path5206-7-0" />
      </g>
      <g
         id="g2030"
         style="stroke:#ffffff;stroke-opacity:1"
         transform="matrix(0.86206857,0,0,0.80767349,9.3425577,13.026917)">
        <path
           d="m 28.237989,131.35553 q -7.837332,0 -12.970561,-5.42878 -5.133223,-5.42868 -5.133223,-14.30004 0,-4.6343 1.695792,-14.167724 1.695798,-9.533424 1.695798,-14.498711 0,-13.108413 -9.5789633,-14.035217 v -5.561195 q 4.5374028,-0.529838 7.0581863,-4.568046 2.520777,-4.104644 2.520777,-10.592734 0,-4.501793 -1.695798,-12.777332 -1.695792,-8.3417 -1.695792,-12.380183 0,-8.474114 5.087389,-13.7042282 Q 20.354823,4.111133 27.825499,4.111133 h 6.783194 v 8.805195 h -8.020669 q -7.51651,0 -7.51651,12.181515 0,4.30331 1.420806,11.056138 1.466633,6.752827 1.466633,10.791308 0,10.460229 -10.31228,19.066757 4.812395,2.846759 7.562338,7.414896 2.749942,4.568046 2.749942,9.136091 0,4.30331 -1.466633,11.916781 -1.420806,7.613466 -1.420806,12.512596 0,15.09453 12.053913,15.09453 h 3.483266 v 9.26859 z"
           style="font-style:normal;font-variant:normal;font-weight:normal;font-stretch:normal;font-size:14.8167px;line-height:1.25;font-family:'Trebuchet MS';-inkscape-font-specification:'Trebuchet MS';letter-spacing:-0.341313px;word-spacing:0px;fill:#ffffff;fill-opacity:1;stroke:#ffffff;stroke-width:2.01451;stroke-opacity:1"
           id="path5202" />
        <path
           d="m 100.85794,131.35553 v -9.26859 h 3.48327 q 12.05391,0 12.05391,-15.09453 0,-4.89913 -1.46664,-12.512596 -1.4208,-7.613471 -1.4208,-11.916781 0,-4.568045 2.74994,-9.136091 2.74995,-4.568137 7.56231,-7.414896 -10.31225,-8.606528 -10.31225,-19.066757 0,-4.038481 1.4208,-10.791308 1.46664,-6.752828 1.46664,-11.056138 0,-12.181515 -7.51651,-12.181515 h -8.02067 V 4.111133 h 6.7832 q 7.47067,0 12.55804,5.2302068 5.13325,5.2301142 5.13325,13.7042282 0,4.038483 -1.69577,12.380183 -1.69584,8.275539 -1.69584,12.777332 0,6.48809 2.52079,10.592734 2.52079,4.038391 7.05822,4.568046 v 5.561195 q -9.57901,0.926804 -9.57901,14.035217 0,4.899125 1.69584,14.366297 1.69577,9.401008 1.69577,14.300138 0,8.87136 -5.13325,14.30004 -5.1332,5.42878 -12.97053,5.42878 z"
           style="font-style:normal;font-variant:normal;font-weight:normal;font-stretch:normal;font-size:14.8167px;line-height:1.25;font-family:'Trebuchet MS';-inkscape-font-specification:'Trebuchet MS';letter-spacing:-0.341313px;word-spacing:0px;fill:#ffffff;fill-opacity:1;stroke:#ffffff;stroke-width:2.01451;stroke-opacity:1"
           id="path5208" />
      </g>
    </g>
  </g>
</svg>
